<svg xmlns="http://www.w3.org/2000/svg" xmlns:xlink="http://www.w3.org/1999/xlink" version="1.1" x="0px" y="0px" viewBox="0 0 1000 1000" enable-background="new 0 0 1000 1000" xml:space="preserve">
<g><g><path fill="#791199" d="M909.6,166.7c-95.3-87.4-249.7-87.4-344.9,0L500,226.1l-64.7-59.4c-95.2-87.4-249.7-87.4-344.9,0c-107.2,98.3-107.2,257.8,0,356.1l409.6,376l409.6-376C1016.8,424.5,1016.8,265.1,909.6,166.7z M849,464.4L500,790L151.1,464.4c-35.2-32.3-48.8-74.8-48.8-119.6c0-44.8,7.9-81.6,43.1-113.9c31.1-28.5,72.8-44.3,117.5-44.3c44.7,0,86.5,27.1,117.6,55.7L500,346.4l119.6-104.1c31.1-28.5,72.8-55.7,117.6-55.7s86.5,15.7,117.6,44.3c35.2,32.3,43,69.1,43.1,113.9C897.8,389.6,884.2,432.1,849,464.4z"/></g><g/><g/><g/><g/><g/><g/><g/><g/><g/><g/><g/><g/><g/><g/><g/></g>
</svg>
